<svg width="56" height="56" viewBox="0 0 56 56" fill="none" xmlns="http://www.w3.org/2000/svg">
<g clip-path="url(#clip0_1_118)">
<path d="M25.2463 26.3397H4.41514C1.981 26.3397 0 28.3196 0 30.7538V51.5849C0 54.019 1.981 56 4.41514 56H25.2463C27.6804 56 29.6603 54.019 29.6603 51.5849V30.7538C29.6603 28.3196 27.6804 26.3397 25.2463 26.3397ZM24.1486 36.8029L13.0932 47.8571C12.454 48.4984 11.4146 48.4999 10.7718 47.8571L5.51283 42.5992C4.87255 41.9578 4.87255 40.9181 5.51283 40.2767C6.1542 39.6364 7.19392 39.6364 7.8353 40.2767L11.933 44.3745L21.826 34.4815C22.4674 33.8401 23.5071 33.8401 24.1485 34.4815C24.7889 35.1218 24.7889 36.1616 24.1486 36.8029Z" fill="#A21C1C"/>
<path d="M42.8488 17.4864V38.4752C42.8488 40.8656 40.9039 42.8115 38.5136 42.8115H32.9438V30.7537C32.9438 26.5093 29.4907 23.0562 25.2463 23.0562H13.1884V17.4864C13.1884 15.0962 15.1344 13.1512 17.5247 13.1512H38.5135C40.9039 13.1512 42.8488 15.0962 42.8488 17.4864Z" fill="#A21C1C"/>
<path d="M56 4.33628V25.325C56 27.7153 54.054 29.6602 51.6637 29.6602H46.1322V17.4864C46.1322 13.2859 42.7141 9.86781 38.5136 9.86781H26.3397V4.33628C26.3397 1.946 28.2846 0 30.6749 0H51.6636C54.054 0 56 1.946 56 4.33628Z" fill="#A21C1C"/>
</g>
<defs>
<clipPath id="clip0_1_118">
<rect width="56" height="56" fill="white"/>
</clipPath>
</defs>
</svg>
