<svg width="177" height="96" viewBox="0 0 177 96" fill="none" xmlns="http://www.w3.org/2000/svg">
<path d="M160.056 28.0186C161.265 28.0353 161.826 24.8544 160.668 24.0944C160.179 23.6626 160.255 23.3802 160.898 23.2473C161.437 22.9359 161.77 22.2673 161.718 21.3454C161.689 19.2193 160.917 18.7126 159.864 19.7964C159.248 20.3902 159.407 23.1559 160.205 24.1235C160.205 24.1235 160.078 25.1491 159.668 26.1001C159.284 27.5119 159.311 27.973 160.056 28.0186ZM147.106 50.0187C147.106 50.0187 146.336 51.1773 146.722 51.4306C147.108 51.6839 147.032 51.9663 146.852 52.0701C146.672 52.1739 146.442 53.021 146.674 53.8391C146.907 54.6571 146.857 55.4005 146.291 55.251C145.828 55.2801 145.572 55.6663 145.315 56.0525C145.341 56.5134 145.727 56.7666 146.087 56.559C146.447 56.3514 146.936 56.7834 147.168 57.6014C147.504 58.598 147.89 58.8514 148.429 58.5399C148.969 58.2285 149.535 58.378 149.587 59.2998C149.873 61.0398 152.483 53.1042 152.478 49.7738C152.579 48.2872 152.809 47.44 152.912 47.6186C153.015 47.7972 153.579 46.2816 154.013 44.1264C154.447 41.9712 155.214 39.1474 155.238 37.9432C156.209 33.8113 157.611 25.8593 157.659 23.4508C157.683 22.2465 158.296 19.9874 158.963 18.6503C159.783 16.7484 159.49 15.41 158.083 14.6348C154.429 12.4588 145.456 11.4495 144.43 12.9943C144.07 13.2019 143.531 13.5133 142.399 13.2143C140.419 12.691 138.8 13.6253 140.061 14.5638C140.833 15.0705 140.474 15.2781 138.956 14.7258C137.542 14.3521 136.437 14.5139 136.103 15.1825C135.59 15.9549 135.307 15.88 135.358 15.1367C135.305 14.2149 135.125 14.3187 134.459 15.6558C133.946 16.4282 133.819 17.454 133.922 17.6325C134.025 17.8111 133.692 18.4796 132.972 18.8949C132.253 19.3101 131.507 19.2644 131.301 18.9073C131.095 18.5502 131.428 17.8816 132.148 17.4663C133.766 16.532 133.454 14.3312 131.913 14.9831C131.373 15.2945 130.294 15.9174 129.575 16.3326C128.856 16.7479 128.137 17.1631 127.648 16.7313C127.262 16.478 126.156 16.6398 125.154 16.9803C124.255 17.4994 122.687 17.6903 121.685 18.0308C120.503 18.4751 120.067 18.9651 120.429 20.4227C120.741 22.6236 120.228 23.396 119.633 21.1204C119.297 20.1237 118.808 19.6919 118.166 19.8248C117.523 19.9577 116.854 19.6295 117.008 19.0648C116.981 18.6038 116.698 18.5291 115.543 19.4344C114.644 19.9534 113.745 20.4724 113.359 20.2191C113.153 19.862 112.716 20.352 112.846 20.9915C112.899 21.9134 113.774 22.5986 115.831 22.8395C117.528 23.288 118.197 23.6161 117.272 23.6742C116.449 23.9109 116.193 24.297 116.399 24.6541C116.708 25.1898 118.07 24.6417 121.127 22.8769C123.824 21.3198 124.903 20.6968 124.21 21.573C123.697 22.3454 123.287 23.2964 123.339 24.2183C123.572 25.0363 123.855 25.1111 123.932 24.8287C124.188 24.4426 124.651 24.4134 124.857 24.7706C125.166 25.3062 125.166 25.3062 125.576 24.3553C125.627 23.612 125.883 23.2259 126.089 23.583C126.605 24.4758 131.026 23.8281 136.216 22.0218C136.756 21.7104 139.505 21.0751 142.075 20.5437C144.646 20.0122 147.292 19.1983 147.832 18.8869C149.09 18.1602 149.529 19.3353 148.4 20.7015C147.784 21.2953 147.554 22.1424 147.76 22.4995C147.966 22.8566 147.71 23.2429 147.35 23.4506C146.81 23.762 138.187 33.7405 134.723 38.1214C134.286 38.6114 133.234 39.6951 132.155 40.318C131.076 40.9409 129.767 42.4109 129.075 43.2871C128.382 44.1633 126.071 45.9737 124.119 47.5766C121.885 49.1047 120.576 50.5747 120.705 51.2142C120.835 51.8537 120.398 52.3437 119.936 52.3727C119.19 52.327 119.396 52.6841 119.885 53.116C120.477 53.7264 120.504 54.1874 119.528 54.9888C118.552 55.7902 118.579 56.2513 119.428 56.4755C121.408 56.9988 121.95 58.3525 120.485 58.722C119.2 58.9877 119.2 58.9878 120.691 59.0792C123.673 59.262 136.152 48.4863 144.416 38.7154C146.854 35.8792 148.932 33.2506 149.292 33.043C149.652 32.8354 150.241 31.7806 150.575 31.112C151.394 29.2102 151.524 29.8497 151.116 32.4658C150.913 33.7738 150.4 34.5463 149.937 34.5754C149.474 34.6044 149.064 35.5553 148.757 36.6848L148.324 38.84L149.04 36.7596C149.68 34.9615 149.86 34.8577 150.376 35.7505C150.685 36.2862 150.841 37.3866 150.611 38.2338C150.15 39.928 150.872 41.178 152.929 41.4189C154.24 41.6141 154.061 41.7179 152.879 42.1622C152.16 42.5774 151.208 42.1746 150.898 41.6389C150.589 41.1032 150.28 40.5675 149.74 40.8789C149.201 41.1903 149.407 41.5475 149.716 42.0832C150.026 42.6189 150.002 43.8231 149.592 44.7741C149.182 45.725 149.261 47.1078 149.673 47.822C150.086 48.5363 150.035 49.2796 149.676 49.4872C149.316 49.6948 148.93 49.4416 148.801 48.8021C148.568 47.984 148.388 48.0879 147.593 48.7855L147.106 50.0187ZM124.723 20.8007C124.723 20.8007 124.413 20.265 125.03 19.6712C125.902 18.6912 126.468 18.8407 125.698 19.9992C125.442 20.3854 125.006 20.8754 124.62 20.6221L124.723 20.8007ZM123.387 21.8098C123.387 21.8098 121.151 21.6727 121.201 20.9293C121.201 20.9293 121.92 20.5141 122.692 21.0207C123.541 21.245 123.747 21.6022 123.208 21.9136L123.387 21.8098ZM135.137 22.6447C135.137 22.6447 134.135 22.9852 133.826 22.4495C133.517 21.9138 133.593 21.6314 133.953 21.4238C134.313 21.2162 134.775 21.1871 135.264 21.619C135.65 21.8723 135.677 22.3333 135.137 22.6447ZM147.446 18.6335C147.446 18.6335 146.134 18.4384 145.619 17.5455C144.794 16.117 144.794 16.117 146.132 16.7731C148.035 17.5787 148.345 18.1144 147.266 18.7373L147.446 18.6335ZM153.713 32.3953C153.713 32.3953 153.248 30.7592 153.042 30.4021C152.835 30.045 152.706 29.4054 153.142 28.9154C153.579 28.4254 154.221 28.2926 154.787 28.4421C155.353 28.5916 155.096 28.9777 154.53 28.8282C153.785 28.7825 153.811 29.2435 154.43 30.3149C154.945 31.2077 155.101 32.3082 154.665 32.7982C154.152 33.5705 153.766 33.3172 153.893 32.2915L153.713 32.3953ZM152.742 36.5272C152.742 36.5272 151.893 36.3029 151.687 35.9457C151.481 35.5886 151.558 35.3062 151.917 35.0986C152.277 34.891 152.663 35.1442 152.972 35.6799C153.281 36.2156 153.205 36.4981 152.742 36.5272ZM153.675 41.4645C153.675 41.4645 152.929 41.4188 152.26 41.0907C151.411 40.8665 151.205 40.5094 151.745 40.198C152.104 39.9904 152.67 40.1398 153.159 40.5717C153.648 41.0035 153.854 41.3607 153.675 41.4645ZM149.583 55.9695C149.019 57.4851 148.839 57.589 148.504 56.5923C148.091 55.8781 148.398 54.7485 148.938 54.4371C150.17 53.2495 150.582 53.9638 149.865 56.0443L149.583 55.9695ZM151.419 45.862C151.419 45.862 150.364 45.2807 151.649 45.0149C153.294 44.5416 153.576 44.6164 152.987 45.6711C152.73 46.0573 152.088 46.1901 151.419 45.862ZM150.139 49.4582C150.239 47.9716 150.546 46.8421 150.726 46.7383L150.906 46.6345C151.09 49.861 151.04 50.6043 150.68 50.8119C150.501 50.9157 150.527 51.3767 151.093 51.5262C151.659 51.6757 151.402 52.0618 150.939 52.0909C150.194 52.0452 150.064 51.4057 150.139 49.4582ZM158.57 31.2576C158.57 31.2576 159.467 29.0733 160.032 29.2228C160.418 29.4761 160.471 30.3981 160.061 31.349C159.191 33.9942 157.7 33.9028 158.57 31.2576ZM157.266 36.0579C157.266 36.0579 159.011 34.098 159.424 34.8122C159.63 35.1693 159.476 35.7341 159.04 36.2241C158.167 37.2041 157.242 37.2622 157.266 36.0579ZM155.435 49.4956C155.435 49.4956 155.974 49.1842 155.408 49.0347C155.022 48.7814 154.893 48.142 155.329 47.652C155.765 47.162 155.919 46.5972 155.533 46.3438C154.761 45.8372 157.218 38.4664 158.22 38.126C158.863 37.9931 158.812 38.7364 158.146 40.0735C157.556 41.1283 157.069 42.3615 157.276 42.7187C157.482 43.0758 156.614 47.3862 155.233 52.4689C153.852 57.5516 152.675 61.3263 152.366 60.7906C151.541 59.3621 154.226 49.479 155.435 49.4956ZM148.022 43.2999C148.022 43.2999 148.331 43.8356 147.715 44.4294C147.022 45.3056 146.919 45.127 147.149 44.2798C147.302 43.7151 147.739 43.2252 148.022 43.2999ZM146.921 46.7921C146.921 46.7921 147.461 46.4808 147.77 47.0165C148.079 47.5522 148.106 48.013 147.746 48.2207C147.386 48.4283 147.103 48.3535 146.897 47.9964C146.691 47.6393 146.665 47.1783 146.921 46.7921ZM122.263 26.5063C122.263 26.5063 120.825 27.3368 119.693 27.0378C118.175 26.4855 118.175 26.4855 119.897 25.7298C122.261 24.8412 123.289 24.9616 122.263 26.5063ZM116.958 55.5203C119.168 55.1964 119.272 55.375 118.502 56.5336C117.912 57.5883 117.939 58.0493 118.891 58.4521C120.022 58.7511 119.766 59.1373 118.224 59.7893C117.145 60.4121 115.937 60.3954 115.628 59.8597C115.318 59.324 115.575 58.9379 116.397 58.7012C117.399 58.3607 117.399 58.3607 116.474 58.4188C115.728 58.3731 115.136 57.7627 114.827 57.227C114.491 56.2304 114.851 56.0227 116.881 55.8027L116.958 55.5203ZM1.52635 71.9292C3.27651 73.2996 3.97172 74.0885 3.25249 74.5037C1.81406 75.3342 11.7444 80.0767 20.4376 82.6764C23.6525 83.6772 24.1153 83.6482 24.7818 82.3111C25.2684 81.0778 25.2683 81.0777 25.0646 82.3858C24.8608 83.6938 25.5298 84.022 29.464 84.6076C32.0868 84.998 34.4266 85.3135 34.7863 85.1059C35.1459 84.8983 35.7117 85.0479 35.8148 85.2264C35.9179 85.405 38.3609 85.8991 41.0604 86.0071C44.9682 86.1318 46.0735 85.9699 46.0207 85.048C46.0711 84.3047 46.354 84.3795 46.9725 85.4509C47.488 86.3437 48.1569 86.6717 48.4134 86.2856C48.773 86.0779 49.672 85.5589 50.5207 85.7831C51.2663 85.8288 52.7576 85.9202 53.5799 85.6835C55.0447 85.3139 55.1214 85.0316 54.2463 84.3464C52.7791 83.0507 51.3909 83.1379 51.1872 84.446C51.1369 85.1893 50.854 85.1146 50.4416 84.4003C50.0293 83.6861 49.6432 83.4327 49.2836 83.6403C48.924 83.8479 48.4349 83.416 48.0225 82.7018C47.3009 81.4519 47.3009 81.4519 49.847 82.1247C51.2615 82.4985 52.6496 82.4113 52.9061 82.0251C53.1627 81.6389 53.2657 81.8174 53.2921 82.2784C53.3185 82.7393 53.8076 83.1713 54.2703 83.1422C54.733 83.1131 55.4282 83.902 55.7639 84.8986C56.3321 86.7133 57.7203 86.6263 57.3319 84.7078C57.2024 84.0683 57.5356 83.3997 57.7154 83.2958C58.075 83.0882 58.3843 83.6239 58.4371 84.5458C58.4131 85.75 58.7991 86.0034 59.7246 85.9453C60.3671 85.8124 60.6236 85.4262 60.5205 85.2476C60.4174 85.0691 61.2397 84.8323 62.7573 85.3847C64.1718 85.7584 66.0226 85.6423 66.9217 85.1232C67.8207 84.6042 68.8228 84.2636 69.2088 84.517C69.5948 84.7703 70.1342 84.4589 70.5706 83.9689C71.0069 83.4789 71.4695 83.4498 71.6757 83.8069C71.8819 84.164 72.3446 84.1349 72.6011 83.7487C72.8576 83.3625 73.3204 83.3335 73.4235 83.5121C73.9389 84.4049 77.5878 83.2505 77.6118 82.0463C77.6621 81.303 77.945 81.3777 78.717 81.8843C79.206 82.3162 80.2346 82.4367 81.1336 81.9177C82.0327 81.3986 83.0348 81.0581 83.7804 81.1038C84.526 81.1495 87.2495 80.0533 89.6901 78.8823C92.1306 77.7113 94.6742 76.7188 95.1369 76.6897C95.5997 76.6607 98.6827 75.3568 101.843 73.7706C107.443 71.0134 107.803 70.8059 106.901 69.6597C106.386 68.7669 105.563 69.0035 104.664 69.5226C103.945 69.9378 103.226 70.3531 102.917 69.8174C102.607 69.2817 103.3 68.4055 104.662 67.8574C105.021 67.6498 104.609 66.9356 103.734 66.2504C102.447 64.8509 102.447 64.851 103.964 65.4033C104.916 65.8061 105.841 65.748 106.175 65.0794C106.508 64.4109 106.688 64.3071 106.534 64.8718C106.458 65.1542 107.05 65.7645 107.539 66.1964C108.105 66.3459 108.697 66.9563 108.62 67.2387C108.543 67.5211 108.26 67.4464 108.054 67.0893C107.848 66.7322 107.282 66.5826 106.923 66.7903C106.383 67.1017 106.589 67.4588 107.644 68.0402C108.416 68.5468 108.905 68.9787 108.829 69.2611C108.932 69.4397 109.754 69.2029 111.013 68.4762C112.631 67.5419 113.067 67.052 112.475 66.4416C111.986 66.0097 112.139 65.4449 113.038 64.9259C114.117 64.303 114.117 64.303 113.887 65.1501C113.374 65.9225 113.477 66.1011 114.403 66.043C115.045 65.9101 115.585 65.5987 115.302 65.5239C115.199 65.3453 114.786 64.6311 114.477 64.0954C114.168 63.5597 114.527 63.3521 115.402 64.0373C116.381 64.9011 117.023 64.7682 118.179 63.8629C119.078 63.3439 119.384 62.2144 119.178 61.8573C118.869 61.3216 118.226 61.4544 117.43 62.152C116.635 62.8496 116.172 62.8787 116.325 62.314C116.299 61.853 115.913 61.5997 115.374 61.9111C114.834 62.2226 113.343 62.1312 112.108 61.6537C110.874 61.1761 109.742 60.877 109.562 60.9808C109.382 61.0846 109.023 61.2923 108.843 61.3961C108.843 61.3961 105.683 62.9824 102.343 64.6724C99.107 66.541 95.6643 68.0525 94.7388 68.1106C94.0963 68.2435 92.9144 68.6878 92.4014 69.4601C91.6821 69.8754 91.3225 70.083 91.3992 69.8006C91.193 69.4435 90.4738 69.8588 89.2152 70.5854C87.9566 71.3121 87.0575 71.8311 86.7482 71.2954C86.542 70.9382 86.439 70.7598 86.2855 71.3245C86.2088 71.6069 86.8009 72.2172 87.4698 72.5453C88.3185 72.7696 88.5248 73.1267 87.9853 73.4382C87.6257 73.6458 86.5972 73.5254 85.9284 73.1973C84.3077 72.4664 80.3758 73.546 80.9944 74.6173C81.2006 74.9745 80.6348 74.825 79.7861 74.6007C78.4483 73.9446 78.0887 74.1523 77.7819 75.2818C77.2952 76.5151 77.2952 76.5151 77.0626 75.697C76.9332 75.0575 76.5471 74.8041 76.0077 75.1156C75.4683 75.427 75.3916 75.7094 75.5978 76.0665C75.9838 76.3198 75.9071 76.6023 75.5475 76.8099C75.1879 77.0175 74.6221 76.868 74.3128 76.3323C74.0035 75.7966 73.3346 75.4685 72.6921 75.6014C72.0496 75.7343 71.7931 76.1205 71.8962 76.2991C71.9993 76.4776 70.8173 76.9219 69.3261 76.8305C67.6551 76.843 66.5499 77.0048 66.653 77.1834C66.756 77.362 66.1136 77.4949 65.0084 77.6568C63.3373 77.6692 63.4404 77.8477 64.3155 78.5329C65.1905 79.2181 64.7279 79.2473 63.2103 78.6949C61.4098 78.0679 61.1269 77.993 62.105 78.8568C63.1863 79.8991 63.1863 79.8991 61.5656 79.1682C60.6138 78.7654 59.8682 78.7197 59.6884 78.8236C58.4298 79.5502 58.0701 79.7578 57.5547 78.865C57.2454 78.3293 56.6796 78.1799 56.1402 78.4913C55.6008 78.8027 55.3443 79.1889 55.7303 79.4422C55.9364 79.7994 55.011 79.8575 53.6229 79.9447C51.7721 80.0609 50.9234 79.8366 50.6908 79.0186C50.3816 78.4829 50.2785 78.3043 50.2018 78.5867C50.0483 79.1515 39.7129 78.6903 32.2305 77.7724C30.4564 77.6063 28.7854 77.6187 28.7086 77.9011C28.6319 78.1834 28.0661 78.0339 27.4739 77.4234C26.8817 76.813 24.6186 76.2151 22.2787 75.8994C19.9388 75.5838 17.8554 74.882 17.3663 74.4501C15.899 73.1545 2.80645 68.333 1.70123 68.4949C0.416206 68.7606 0.907766 70.8578 2.27193 71.9748L1.52635 71.9292ZM109.131 64.8012C109.131 64.8012 110.056 64.7431 110.262 65.1003C110.468 65.4574 110.212 65.8435 109.749 65.8726C109.286 65.9016 108.721 65.7521 108.618 65.5735C108.514 65.395 108.591 65.1127 109.131 64.8012ZM108.433 62.347C108.433 62.347 109.898 61.9774 111.132 62.455C112.367 62.9326 113.139 63.4393 112.78 63.6469C112.42 63.8545 111.674 63.8088 111.005 63.4807C110.336 63.1526 109.514 63.3893 109.437 63.6717C109.181 64.0579 108.898 63.9832 108.692 63.6261C108.486 63.269 108.459 62.808 108.716 62.4218L108.433 62.347ZM94.8468 71.6195C94.8468 71.6195 95.1272 70.029 94.8947 69.2109C94.6621 68.3929 94.8419 68.2891 95.1009 69.5681C96.0551 71.6361 96.9805 71.578 96.3859 69.3023C96.0502 68.3057 96.3835 67.6372 96.9493 67.7867C97.6949 67.8324 97.798 68.011 97.5678 68.8581C97.1579 69.809 97.261 69.9876 98.0833 69.7509C99.6513 69.56 100.219 71.3746 98.781 72.2051C97.1627 73.1394 94.1539 72.4956 94.6406 71.2623L94.8468 71.6195ZM81.1024 78.1263C81.1024 78.1263 82.1309 78.2468 82.3371 78.6039C82.8525 79.4967 82.21 79.6295 81.2318 78.7658C80.7427 78.3339 80.8195 78.0515 81.1024 78.1263ZM89.8865 72.5787C89.8865 72.5787 90.8119 72.5206 91.0181 72.8777C91.2243 73.2348 90.9678 73.6209 90.505 73.65C90.0423 73.6791 89.4765 73.5295 89.3734 73.351C89.2703 73.1724 89.3471 72.8901 89.8865 72.5787ZM82.1021 76.1207C82.1021 76.1207 82.2291 75.095 82.4089 74.9911C82.5887 74.8873 82.8716 74.9621 83.1809 75.4978C83.4902 76.0335 83.2337 76.4197 82.8741 76.6273C82.5145 76.8349 82.1285 76.5816 82.1021 76.1207ZM79.2252 77.7816C79.2252 77.7816 78.7385 79.0149 78.2758 79.044C77.9162 79.2516 77.9665 78.5083 78.1967 77.6612C79.1197 75.9379 79.1196 75.9379 79.1221 77.603L79.2252 77.7816ZM69.5611 79.3138C69.5611 79.3138 70.0238 79.2847 70.3331 79.8204C70.5393 80.1776 70.3858 80.7422 70.0262 80.9498C69.6666 81.1574 69.2807 80.9042 69.2543 80.4433C69.2279 79.9824 69.3813 79.4176 69.5611 79.3138ZM72.7976 77.4452C72.7976 77.4452 73.1836 77.6984 73.4929 78.2341C73.8021 78.7698 73.469 79.4384 72.7497 79.8537C72.0305 80.2689 71.2849 80.2232 71.1818 80.0447C70.9756 79.6875 72.0784 77.8604 72.7976 77.4452ZM67.914 78.1219L66.7057 78.1053C66.7057 78.1053 66.9622 77.7191 67.5016 77.4076C68.0411 77.0962 68.6068 77.2457 68.7099 77.4242C68.813 77.6028 68.5565 77.989 67.914 78.1219ZM63.4716 81.6391C63.7306 82.9181 63.5508 83.0219 62.5726 82.1581C61.9804 81.5477 61.6711 81.012 61.7478 80.7296C62.0547 79.6001 63.3925 80.2563 63.4716 81.6391ZM114.623 58.5351C114.623 58.5351 114.753 59.1746 114.779 59.6355C114.985 59.9926 114.652 60.6612 114.292 60.8688C113.933 61.0764 113.65 61.0017 113.7 60.2584C113.674 59.7974 113.288 59.5441 112.748 59.8555C112.209 60.167 111.463 60.1213 110.974 59.6895C110.485 59.2576 110.459 58.7966 111.358 58.2775C112.077 57.8623 112.643 58.0118 112.849 58.3689C113.055 58.7261 113.338 58.8008 113.877 58.4894C114.237 58.2817 114.597 58.0741 114.597 58.0741L114.623 58.5351Z" fill="#F2F2F2"/>
</svg>
