<svg width="177" height="96" viewBox="0 0 177 96" fill="none" xmlns="http://www.w3.org/2000/svg">
<path d="M160.056 67.9814C161.265 67.9647 161.826 71.1456 160.668 71.9056C160.179 72.3374 160.255 72.6198 160.898 72.7527C161.437 73.0641 161.77 73.7327 161.718 74.6546C161.689 76.7807 160.917 77.2874 159.864 76.2036C159.248 75.6098 159.407 72.8441 160.205 71.8765C160.205 71.8765 160.078 70.8509 159.668 69.8999C159.284 68.4881 159.311 68.027 160.056 67.9814ZM147.106 45.9813C147.106 45.9813 146.336 44.8227 146.722 44.5694C147.108 44.3161 147.032 44.0337 146.852 43.9299C146.672 43.8261 146.442 42.979 146.674 42.1609C146.907 41.3429 146.857 40.5995 146.291 40.749C145.828 40.7199 145.572 40.3337 145.315 39.9475C145.341 39.4866 145.727 39.2334 146.087 39.441C146.447 39.6486 146.936 39.2166 147.168 38.3986C147.504 37.402 147.89 37.1486 148.429 37.4601C148.969 37.7715 149.535 37.622 149.587 36.7002C149.873 34.9602 152.483 42.8958 152.478 46.2262C152.579 47.7128 152.809 48.56 152.912 48.3814C153.015 48.2028 153.579 49.7184 154.013 51.8736C154.447 54.0288 155.214 56.8526 155.238 58.0568C156.209 62.1887 157.611 70.1407 157.659 72.5492C157.683 73.7535 158.296 76.0126 158.963 77.3497C159.783 79.2516 159.49 80.59 158.083 81.3652C154.429 83.5412 145.456 84.5505 144.43 83.0057C144.07 82.7981 143.531 82.4867 142.399 82.7857C140.419 83.309 138.8 82.3747 140.061 81.4362C140.833 80.9295 140.474 80.7219 138.956 81.2742C137.542 81.6479 136.437 81.4861 136.103 80.8175C135.59 80.0451 135.307 80.12 135.358 80.8633C135.305 81.7851 135.125 81.6813 134.459 80.3442C133.946 79.5718 133.819 78.546 133.922 78.3675C134.025 78.1889 133.692 77.5204 132.972 77.1051C132.253 76.6899 131.507 76.7356 131.301 77.0927C131.095 77.4498 131.428 78.1184 132.148 78.5337C133.766 79.468 133.454 81.6688 131.913 81.0169C131.373 80.7055 130.294 80.0826 129.575 79.6674C128.856 79.2521 128.137 78.8369 127.648 79.2687C127.262 79.522 126.156 79.3602 125.154 79.0197C124.255 78.5006 122.687 78.3097 121.685 77.9692C120.503 77.5249 120.067 77.0349 120.429 75.5773C120.741 73.3764 120.228 72.604 119.633 74.8796C119.297 75.8763 118.808 76.3081 118.166 76.1752C117.523 76.0423 116.854 76.3705 117.008 76.9352C116.981 77.3962 116.698 77.4709 115.543 76.5656C114.644 76.0466 113.745 75.5276 113.359 75.7809C113.153 76.138 112.716 75.648 112.846 75.0085C112.899 74.0866 113.774 73.4014 115.831 73.1605C117.528 72.712 118.197 72.3839 117.272 72.3258C116.449 72.0891 116.193 71.703 116.399 71.3459C116.708 70.8102 118.07 71.3583 121.127 73.1231C123.824 74.6802 124.903 75.3032 124.21 74.427C123.697 73.6546 123.287 72.7036 123.339 71.7817C123.572 70.9637 123.855 70.8889 123.932 71.1713C124.188 71.5574 124.651 71.5866 124.857 71.2294C125.166 70.6938 125.166 70.6938 125.576 71.6447C125.627 72.388 125.883 72.7741 126.089 72.417C126.605 71.5242 131.026 72.1719 136.216 73.9782C136.756 74.2896 139.505 74.9249 142.075 75.4563C144.646 75.9878 147.292 76.8017 147.832 77.1131C149.09 77.8398 149.529 76.6647 148.4 75.2985C147.784 74.7047 147.554 73.8576 147.76 73.5005C147.966 73.1434 147.71 72.7571 147.35 72.5494C146.81 72.238 138.187 62.2595 134.723 57.8786C134.286 57.3886 133.234 56.3049 132.155 55.682C131.076 55.0591 129.767 53.5891 129.075 52.7129C128.382 51.8367 126.071 50.0263 124.119 48.4234C121.885 46.8953 120.576 45.4253 120.705 44.7858C120.835 44.1463 120.398 43.6563 119.936 43.6273C119.19 43.673 119.396 43.3159 119.885 42.884C120.477 42.2736 120.504 41.8126 119.528 41.0112C118.552 40.2098 118.579 39.7487 119.428 39.5245C121.408 39.0012 121.95 37.6475 120.485 37.278C119.2 37.0123 119.2 37.0122 120.691 36.9208C123.673 36.738 136.152 47.5137 144.416 57.2846C146.854 60.1208 148.932 62.7494 149.292 62.957C149.652 63.1646 150.241 64.2194 150.575 64.888C151.394 66.7898 151.524 66.1503 151.116 63.5342C150.913 62.2262 150.4 61.4537 149.937 61.4246C149.474 61.3956 149.064 60.4447 148.757 59.3152L148.324 57.16L149.04 59.2404C149.68 61.0385 149.86 61.1423 150.376 60.2495C150.685 59.7138 150.841 58.6134 150.611 57.7662C150.15 56.072 150.872 54.822 152.929 54.5811C154.24 54.3859 154.061 54.2821 152.879 53.8378C152.16 53.4226 151.208 53.8254 150.898 54.3611C150.589 54.8968 150.28 55.4325 149.74 55.1211C149.201 54.8097 149.407 54.4525 149.716 53.9168C150.026 53.3811 150.002 52.1769 149.592 51.2259C149.182 50.275 149.261 48.8922 149.673 48.178C150.086 47.4637 150.035 46.7204 149.676 46.5128C149.316 46.3052 148.93 46.5584 148.801 47.1979C148.568 48.016 148.388 47.9121 147.593 47.2145L147.106 45.9813ZM124.723 75.1993C124.723 75.1993 124.413 75.735 125.03 76.3288C125.902 77.3088 126.468 77.1593 125.698 76.0008C125.442 75.6146 125.006 75.1246 124.62 75.3779L124.723 75.1993ZM123.387 74.1902C123.387 74.1902 121.151 74.3273 121.201 75.0707C121.201 75.0707 121.92 75.4859 122.692 74.9793C123.541 74.755 123.747 74.3978 123.208 74.0864L123.387 74.1902ZM135.137 73.3553C135.137 73.3553 134.135 73.0148 133.826 73.5505C133.517 74.0862 133.593 74.3686 133.953 74.5762C134.313 74.7838 134.775 74.8129 135.264 74.381C135.65 74.1277 135.677 73.6667 135.137 73.3553ZM147.446 77.3665C147.446 77.3665 146.134 77.5616 145.619 78.4545C144.794 79.883 144.794 79.883 146.132 79.2269C148.035 78.4213 148.345 77.8856 147.266 77.2627L147.446 77.3665ZM153.713 63.6047C153.713 63.6047 153.248 65.2408 153.042 65.5979C152.835 65.955 152.706 66.5946 153.142 67.0846C153.579 67.5746 154.221 67.7074 154.787 67.5579C155.353 67.4084 155.096 67.0223 154.53 67.1718C153.785 67.2175 153.811 66.7565 154.43 65.6851C154.945 64.7923 155.101 63.6918 154.665 63.2018C154.152 62.4295 153.766 62.6828 153.893 63.7085L153.713 63.6047ZM152.742 59.4728C152.742 59.4728 151.893 59.6971 151.687 60.0543C151.481 60.4114 151.558 60.6938 151.917 60.9014C152.277 61.109 152.663 60.8558 152.972 60.3201C153.281 59.7844 153.205 59.5019 152.742 59.4728ZM153.675 54.5355C153.675 54.5355 152.929 54.5812 152.26 54.9093C151.411 55.1335 151.205 55.4906 151.745 55.802C152.104 56.0096 152.67 55.8602 153.159 55.4283C153.648 54.9965 153.854 54.6393 153.675 54.5355ZM149.583 40.0305C149.019 38.5149 148.839 38.411 148.504 39.4077C148.091 40.1219 148.398 41.2515 148.938 41.5629C150.17 42.7505 150.582 42.0362 149.865 39.9557L149.583 40.0305ZM151.419 50.138C151.419 50.138 150.364 50.7193 151.649 50.9851C153.294 51.4584 153.576 51.3836 152.987 50.3289C152.73 49.9427 152.088 49.8099 151.419 50.138ZM150.139 46.5418C150.239 48.0284 150.546 49.1579 150.726 49.2617L150.906 49.3655C151.09 46.139 151.04 45.3957 150.68 45.1881C150.501 45.0843 150.527 44.6233 151.093 44.4738C151.659 44.3243 151.402 43.9382 150.939 43.9091C150.194 43.9548 150.064 44.5943 150.139 46.5418ZM158.57 64.7424C158.57 64.7424 159.467 66.9267 160.032 66.7772C160.418 66.5239 160.471 65.6019 160.061 64.651C159.191 62.0058 157.7 62.0972 158.57 64.7424ZM157.266 59.9421C157.266 59.9421 159.011 61.902 159.424 61.1878C159.63 60.8307 159.476 60.2659 159.04 59.7759C158.167 58.7959 157.242 58.7378 157.266 59.9421ZM155.435 46.5044C155.435 46.5044 155.974 46.8158 155.408 46.9653C155.022 47.2186 154.893 47.858 155.329 48.348C155.765 48.838 155.919 49.4028 155.533 49.6562C154.761 50.1628 157.218 57.5336 158.22 57.874C158.863 58.0069 158.812 57.2636 158.146 55.9265C157.556 54.8717 157.069 53.6385 157.276 53.2813C157.482 52.9242 156.614 48.6138 155.233 43.5311C153.852 38.4484 152.675 34.6737 152.366 35.2094C151.541 36.6379 154.226 46.521 155.435 46.5044ZM148.022 52.7001C148.022 52.7001 148.331 52.1644 147.715 51.5706C147.022 50.6944 146.919 50.873 147.149 51.7202C147.302 52.2849 147.739 52.7748 148.022 52.7001ZM146.921 49.2079C146.921 49.2079 147.461 49.5192 147.77 48.9835C148.079 48.4478 148.106 47.987 147.746 47.7793C147.386 47.5717 147.103 47.6465 146.897 48.0036C146.691 48.3607 146.665 48.8217 146.921 49.2079ZM122.263 69.4937C122.263 69.4937 120.825 68.6632 119.693 68.9622C118.175 69.5145 118.175 69.5145 119.897 70.2702C122.261 71.1588 123.289 71.0384 122.263 69.4937ZM116.958 40.4797C119.168 40.8036 119.272 40.625 118.502 39.4664C117.912 38.4117 117.939 37.9507 118.891 37.5479C120.022 37.2489 119.766 36.8627 118.224 36.2107C117.145 35.5879 115.937 35.6046 115.628 36.1403C115.318 36.676 115.575 37.0621 116.397 37.2988C117.399 37.6393 117.399 37.6393 116.474 37.5812C115.728 37.6269 115.136 38.2373 114.827 38.773C114.491 39.7696 114.851 39.9773 116.881 40.1973L116.958 40.4797ZM1.52635 24.0708C3.27651 22.7004 3.97172 21.9115 3.25249 21.4963C1.81406 20.6658 11.7444 15.9233 20.4376 13.3236C23.6525 12.3228 24.1153 12.3518 24.7818 13.6889C25.2684 14.9222 25.2683 14.9223 25.0646 13.6142C24.8608 12.3062 25.5298 11.978 29.464 11.3924C32.0868 11.002 34.4266 10.6865 34.7863 10.8941C35.1459 11.1017 35.7117 10.9521 35.8148 10.7736C35.9179 10.595 38.3609 10.1009 41.0604 9.99285C44.9682 9.8682 46.0735 10.0301 46.0207 10.952C46.0711 11.6953 46.354 11.6205 46.9725 10.5491C47.488 9.65632 48.1569 9.32826 48.4134 9.71445C48.773 9.92207 49.672 10.4411 50.5207 10.2169C51.2663 10.1712 52.7576 10.0798 53.5799 10.3165C55.0447 10.6861 55.1214 10.9684 54.2463 11.6536C52.7791 12.9493 51.3909 12.8621 51.1872 11.554C51.1369 10.8107 50.854 10.8854 50.4416 11.5997C50.0293 12.3139 49.6432 12.5673 49.2836 12.3597C48.924 12.1521 48.4349 12.584 48.0225 13.2982C47.3009 14.5481 47.3009 14.5481 49.847 13.8753C51.2615 13.5015 52.6496 13.5887 52.9061 13.9749C53.1627 14.3611 53.2657 14.1826 53.2921 13.7216C53.3185 13.2607 53.8076 12.8287 54.2703 12.8578C54.733 12.8869 55.4282 12.098 55.7639 11.1014C56.3321 9.28667 57.7203 9.37373 57.3319 11.2922C57.2024 11.9317 57.5356 12.6003 57.7154 12.7042C58.075 12.9118 58.3843 12.3761 58.4371 11.4542C58.4131 10.25 58.7991 9.99659 59.7246 10.0547C60.3671 10.1876 60.6236 10.5738 60.5205 10.7524C60.4174 10.9309 61.2397 11.1677 62.7573 10.6153C64.1718 10.2416 66.0226 10.3577 66.9217 10.8768C67.8207 11.3958 68.8228 11.7364 69.2088 11.483C69.5948 11.2297 70.1342 11.5411 70.5706 12.0311C71.0069 12.5211 71.4695 12.5502 71.6757 12.1931C71.8819 11.836 72.3446 11.8651 72.6011 12.2513C72.8576 12.6375 73.3204 12.6665 73.4235 12.4879C73.9389 11.5951 77.5878 12.7495 77.6118 13.9537C77.6621 14.697 77.945 14.6223 78.717 14.1157C79.206 13.6838 80.2346 13.5633 81.1336 14.0823C82.0327 14.6014 83.0348 14.9419 83.7804 14.8962C84.526 14.8505 87.2495 15.9467 89.6901 17.1177C92.1306 18.2887 94.6742 19.2812 95.1369 19.3103C95.5997 19.3393 98.6827 20.6432 101.843 22.2294C107.443 24.9866 107.803 25.1941 106.901 26.3403C106.386 27.2331 105.563 26.9965 104.664 26.4774C103.945 26.0622 103.226 25.6469 102.917 26.1826C102.607 26.7183 103.3 27.5945 104.662 28.1426C105.021 28.3502 104.609 29.0644 103.734 29.7496C102.447 31.1491 102.447 31.149 103.964 30.5967C104.916 30.1939 105.841 30.252 106.175 30.9206C106.508 31.5891 106.688 31.6929 106.534 31.1282C106.458 30.8458 107.05 30.2355 107.539 29.8036C108.105 29.6541 108.697 29.0437 108.62 28.7613C108.543 28.4789 108.26 28.5536 108.054 28.9107C107.848 29.2678 107.282 29.4174 106.923 29.2097C106.383 28.8983 106.589 28.5412 107.644 27.9598C108.416 27.4532 108.905 27.0213 108.829 26.7389C108.932 26.5603 109.754 26.7971 111.013 27.5238C112.631 28.4581 113.067 28.948 112.475 29.5584C111.986 29.9903 112.139 30.5551 113.038 31.0741C114.117 31.697 114.117 31.697 113.887 30.8499C113.374 30.0775 113.477 29.8989 114.403 29.957C115.045 30.0899 115.585 30.4013 115.302 30.4761C115.199 30.6547 114.786 31.3689 114.477 31.9046C114.168 32.4403 114.527 32.6479 115.402 31.9627C116.381 31.0989 117.023 31.2318 118.179 32.1371C119.078 32.6561 119.384 33.7856 119.178 34.1427C118.869 34.6784 118.226 34.5456 117.43 33.848C116.635 33.1504 116.172 33.1213 116.325 33.686C116.299 34.147 115.913 34.4003 115.374 34.0889C114.834 33.7774 113.343 33.8688 112.108 34.3463C110.874 34.8239 109.742 35.123 109.562 35.0192C109.382 34.9154 109.023 34.7077 108.843 34.6039C108.843 34.6039 105.683 33.0176 102.343 31.3276C99.107 29.459 95.6643 27.9475 94.7388 27.8894C94.0963 27.7565 92.9144 27.3122 92.4014 26.5399C91.6821 26.1246 91.3225 25.917 91.3992 26.1994C91.193 26.5565 90.4738 26.1412 89.2152 25.4146C87.9566 24.6879 87.0575 24.1689 86.7482 24.7046C86.542 25.0618 86.439 25.2402 86.2855 24.6755C86.2088 24.3931 86.8009 23.7828 87.4698 23.4547C88.3185 23.2304 88.5248 22.8733 87.9853 22.5618C87.6257 22.3542 86.5972 22.4746 85.9284 22.8027C84.3077 23.5336 80.3758 22.454 80.9944 21.3827C81.2006 21.0255 80.6348 21.175 79.7861 21.3993C78.4483 22.0554 78.0887 21.8477 77.7819 20.7182C77.2952 19.4849 77.2952 19.4849 77.0626 20.303C76.9332 20.9425 76.5471 21.1959 76.0077 20.8844C75.4683 20.573 75.3916 20.2906 75.5978 19.9335C75.9838 19.6802 75.9071 19.3977 75.5475 19.1901C75.1879 18.9825 74.6221 19.132 74.3128 19.6677C74.0035 20.2034 73.3346 20.5315 72.6921 20.3986C72.0496 20.2657 71.7931 19.8795 71.8962 19.7009C71.9993 19.5224 70.8173 19.0781 69.3261 19.1695C67.6551 19.157 66.5499 18.9952 66.653 18.8166C66.756 18.638 66.1136 18.5051 65.0084 18.3432C63.3373 18.3308 63.4404 18.1523 64.3155 17.4671C65.1905 16.7819 64.7279 16.7527 63.2103 17.3051C61.4098 17.9321 61.1269 18.007 62.105 17.1432C63.1863 16.1009 63.1863 16.1009 61.5656 16.8318C60.6138 17.2346 59.8682 17.2803 59.6884 17.1764C58.4298 16.4498 58.0701 16.2422 57.5547 17.135C57.2454 17.6707 56.6796 17.8201 56.1402 17.5087C55.6008 17.1973 55.3443 16.8111 55.7303 16.5578C55.9364 16.2006 55.011 16.1425 53.6229 16.0553C51.7721 15.9391 50.9234 16.1634 50.6908 16.9814C50.3816 17.5171 50.2785 17.6957 50.2018 17.4133C50.0483 16.8485 39.7129 17.3097 32.2305 18.2276C30.4564 18.3937 28.7854 18.3813 28.7086 18.0989C28.6319 17.8166 28.0661 17.9661 27.4739 18.5766C26.8817 19.187 24.6186 19.7849 22.2787 20.1006C19.9388 20.4162 17.8554 21.118 17.3663 21.5499C15.899 22.8455 2.80645 27.667 1.70123 27.5051C0.416206 27.2394 0.907766 25.1422 2.27193 24.0252L1.52635 24.0708ZM109.131 31.1988C109.131 31.1988 110.056 31.2569 110.262 30.8997C110.468 30.5426 110.212 30.1565 109.749 30.1274C109.286 30.0984 108.721 30.2479 108.618 30.4265C108.514 30.605 108.591 30.8873 109.131 31.1988ZM108.433 33.653C108.433 33.653 109.898 34.0226 111.132 33.545C112.367 33.0674 113.139 32.5607 112.78 32.3531C112.42 32.1455 111.674 32.1912 111.005 32.5193C110.336 32.8474 109.514 32.6107 109.437 32.3283C109.181 31.9421 108.898 32.0168 108.692 32.3739C108.486 32.731 108.459 33.192 108.716 33.5782L108.433 33.653ZM94.8468 24.3805C94.8468 24.3805 95.1272 25.971 94.8947 26.7891C94.6621 27.6071 94.8419 27.7109 95.1009 26.4319C96.0551 24.3639 96.9805 24.422 96.3859 26.6977C96.0502 27.6943 96.3835 28.3628 96.9493 28.2133C97.6949 28.1676 97.798 27.989 97.5678 27.1419C97.1579 26.191 97.261 26.0124 98.0833 26.2491C99.6513 26.44 100.219 24.6254 98.781 23.7949C97.1627 22.8606 94.1539 23.5044 94.6406 24.7377L94.8468 24.3805ZM81.1024 17.8737C81.1024 17.8737 82.1309 17.7532 82.3371 17.3961C82.8525 16.5033 82.21 16.3705 81.2318 17.2342C80.7427 17.6661 80.8195 17.9485 81.1024 17.8737ZM89.8865 23.4213C89.8865 23.4213 90.8119 23.4794 91.0181 23.1223C91.2243 22.7652 90.9678 22.3791 90.505 22.35C90.0423 22.3209 89.4765 22.4705 89.3734 22.649C89.2703 22.8276 89.3471 23.1099 89.8865 23.4213ZM82.1021 19.8793C82.1021 19.8793 82.2291 20.905 82.4089 21.0089C82.5887 21.1127 82.8716 21.0379 83.1809 20.5022C83.4902 19.9665 83.2337 19.5803 82.8741 19.3727C82.5145 19.1651 82.1285 19.4184 82.1021 19.8793ZM79.2252 18.2184C79.2252 18.2184 78.7385 16.9851 78.2758 16.956C77.9162 16.7484 77.9665 17.4917 78.1967 18.3388C79.1197 20.0621 79.1196 20.0621 79.1221 18.397L79.2252 18.2184ZM69.5611 16.6862C69.5611 16.6862 70.0238 16.7153 70.3331 16.1796C70.5393 15.8224 70.3858 15.2578 70.0262 15.0502C69.6666 14.8426 69.2807 15.0958 69.2543 15.5567C69.2279 16.0176 69.3813 16.5824 69.5611 16.6862ZM72.7976 18.5548C72.7976 18.5548 73.1836 18.3016 73.4929 17.7659C73.8021 17.2302 73.469 16.5616 72.7497 16.1463C72.0305 15.7311 71.2849 15.7768 71.1818 15.9553C70.9756 16.3125 72.0784 18.1396 72.7976 18.5548ZM67.914 17.8781L66.7057 17.8947C66.7057 17.8947 66.9622 18.2809 67.5016 18.5924C68.0411 18.9038 68.6068 18.7543 68.7099 18.5758C68.813 18.3972 68.5565 18.011 67.914 17.8781ZM63.4716 14.3609C63.7306 13.0819 63.5508 12.9781 62.5726 13.8419C61.9804 14.4523 61.6711 14.988 61.7478 15.2704C62.0547 16.3999 63.3925 15.7437 63.4716 14.3609ZM114.623 37.4649C114.623 37.4649 114.753 36.8254 114.779 36.3645C114.985 36.0074 114.652 35.3388 114.292 35.1312C113.933 34.9236 113.65 34.9983 113.7 35.7416C113.674 36.2026 113.288 36.4559 112.748 36.1445C112.209 35.833 111.463 35.8787 110.974 36.3105C110.485 36.7424 110.459 37.2034 111.358 37.7225C112.077 38.1377 112.643 37.9882 112.849 37.6311C113.055 37.2739 113.338 37.1992 113.877 37.5106C114.237 37.7183 114.597 37.9259 114.597 37.9259L114.623 37.4649Z" fill="#F2F2F2"/>
</svg>
