<svg width="56" height="56" viewBox="0 0 56 56" fill="none" xmlns="http://www.w3.org/2000/svg">
<path fill-rule="evenodd" clip-rule="evenodd" d="M28.0003 44.3332C30.1453 44.3332 32.2692 43.9107 34.2508 43.0899C36.2325 42.269 38.033 41.0659 39.5497 39.5492C41.0664 38.0326 42.2695 36.232 43.0904 34.2503C43.9112 32.2687 44.3337 30.1448 44.3337 27.9998C44.3337 25.8549 43.9112 23.731 43.0904 21.7493C42.2695 19.7677 41.0664 17.9671 39.5497 16.4504C38.033 14.9337 36.2325 13.7306 34.2508 12.9098C32.2692 12.089 30.1453 11.6665 28.0003 11.6665C23.6685 11.6665 19.514 13.3873 16.4509 16.4504C13.3878 19.5135 11.667 23.668 11.667 27.9998C11.667 32.3317 13.3878 36.4862 16.4509 39.5492C19.514 42.6123 23.6685 44.3332 28.0003 44.3332ZM23.5367 17.2198C24.9519 16.6341 26.4687 16.3329 28.0003 16.3332C28.3097 16.3332 28.6065 16.2103 28.8253 15.9915C29.0441 15.7727 29.167 15.4759 29.167 15.1665C29.167 14.8571 29.0441 14.5603 28.8253 14.3415C28.6065 14.1228 28.3097 13.9998 28.0003 13.9998C24.2873 13.9998 20.7263 15.4748 18.1008 18.1003C15.4753 20.7259 14.0003 24.2868 14.0003 27.9998C14.0003 28.3093 14.1232 28.606 14.342 28.8248C14.5608 29.0436 14.8576 29.1665 15.167 29.1665C15.4764 29.1665 15.7732 29.0436 15.992 28.8248C16.2107 28.606 16.3337 28.3093 16.3337 27.9998C16.3335 25.692 17.0177 23.436 18.2999 21.5172C19.582 19.5983 21.4045 18.1028 23.5367 17.2198Z" fill="black" fill-opacity="0.25"/>
<path d="M48.1667 48.1667L40 40" stroke="#A21C1C" stroke-width="2.33333" stroke-linecap="round"/>
<path d="M25.667 45.4999C36.6206 45.4999 45.5003 36.6202 45.5003 25.6666C45.5003 14.7129 36.6206 5.83325 25.667 5.83325C14.7133 5.83325 5.83362 14.7129 5.83362 25.6666C5.83362 36.6202 14.7133 45.4999 25.667 45.4999Z" stroke="#A21C1C" stroke-width="2.33333"/>
</svg>
